<svg width="233" height="35" viewBox="0 0 233 35" fill="none" xmlns="http://www.w3.org/2000/svg">
<path d="M62.9813 17.5765L57.0258 23.445L38.156 4.85059L36.1724 6.80526L56.0364 26.3793C56.3092 26.6482 56.6698 26.7848 57.0305 26.7848C57.3911 26.7848 57.7472 26.6482 58.0246 26.3793L64.9696 19.5357L62.986 17.581L62.9813 17.5765Z" fill="url(#paint0_footer)"/>
<path d="M56.0361 10.733L60.3501 14.9841L56.0269 10.7239H56.0315L56.0361 10.733Z" fill="url(#paint1_footer)"/>
<path d="M65.9587 16.597C66.2223 16.8567 66.3702 17.2075 66.3702 17.5766C66.3702 17.9457 66.2223 18.2965 65.9587 18.5562L58.0196 26.3795C57.7468 26.6483 57.3861 26.785 57.0255 26.785C56.6648 26.785 56.3088 26.6483 56.0314 26.3795L55.0372 25.3999L50.9775 29.4003C47.4865 32.8404 41.9934 33.1456 38.151 30.307L49.0864 19.5313L47.1028 17.5766L35.1039 29.4003C34.8403 29.66 34.6924 30.0109 34.6924 30.3799C34.6924 30.749 34.8403 31.0998 35.1039 31.3596C37.5684 33.7835 40.8005 35.0001 44.0325 35.0001C47.2646 35.0001 50.5013 33.7881 52.9611 31.3596L65.9495 18.5608C66.213 18.3011 66.361 17.9502 66.361 17.5812C66.361 17.2121 66.213 16.8613 65.9495 16.6015L65.9587 16.597Z" fill="url(#paint2_footer)"/>
<path d="M58.0196 26.3751L55.7447 28.6168L52.9704 31.3506C50.5105 33.7746 47.2739 34.9865 44.0418 34.9865C41.5819 34.9865 39.1174 34.2849 36.9951 32.877C36.7084 32.6901 36.431 32.4851 36.1628 32.2755C35.8021 31.993 35.4507 31.6832 35.1132 31.3506C34.8496 31.0909 34.7017 30.74 34.7017 30.371C34.7017 30.0019 34.8496 29.6511 35.1132 29.3914L45.8266 18.8343L47.112 17.5676L48.046 18.4926L49.091 19.5223L47.8056 20.789L38.1557 30.2981C38.4377 30.5077 38.7244 30.6945 39.0249 30.8676C42.7934 33.0729 47.7501 32.5762 50.9868 29.3868L53.7611 26.653L55.0465 25.3863L56.036 26.3659C56.3088 26.6348 56.6695 26.7715 57.0301 26.7715C57.3908 26.7715 57.7468 26.6348 58.0243 26.3659L58.0196 26.3751Z" fill="url(#paint3_footer)"/>
<path d="M49.0908 19.5314L47.8053 20.7981L38.1554 30.3072L36.1579 32.2755C35.7972 31.993 35.4458 31.6832 35.1083 31.3506C34.8447 31.0909 34.6968 30.74 34.6968 30.371C34.6968 30.0019 34.8447 29.6511 35.1083 29.3914L45.8217 18.8343L47.1071 17.5676L48.0412 18.4926L49.0861 19.5223L49.0908 19.5314Z" fill="url(#paint4_footer)"/>
<path d="M66.3705 17.5765C66.3705 17.9456 66.2225 18.2965 65.959 18.5562L64.9649 19.5358L50.9824 5.75738C49.1282 3.93029 46.6591 2.92333 44.0374 2.92333C41.8873 2.92333 39.8436 3.59767 38.1559 4.85067L36.1723 6.80535L35.1088 5.75738C34.8452 5.49767 34.6973 5.14683 34.6973 4.77777C34.6973 4.4087 34.8452 4.05787 35.1088 3.79816C37.4947 1.44708 40.6666 0.153076 44.0374 0.153076C47.4082 0.153076 50.5801 1.44708 52.966 3.79816L65.9544 16.5969C66.2179 16.8566 66.3659 17.2075 66.3659 17.5765H66.3705Z" fill="url(#paint5_footer)"/>
<g opacity="0.61">
<path d="M48.0463 18.5016L49.0913 19.5313L47.8059 20.798L45.8223 18.8433L47.1077 17.5767L48.0463 18.5016Z" fill="url(#paint6_footer)"/>
<path d="M58.0198 26.3749L55.7449 28.6166L53.7612 26.6619L55.0467 25.3953L56.0362 26.3749C56.309 26.6437 56.6696 26.7804 57.0303 26.7804C57.3909 26.7804 57.747 26.6437 58.0244 26.3749H58.0198Z" fill="url(#paint7_footer)"/>
<path d="M39.0252 30.8767L36.9954 32.8769C36.7087 32.6901 36.4313 32.4851 36.1631 32.2755L38.1606 30.3071C38.4426 30.5167 38.7293 30.7035 39.0299 30.8767H39.0252Z" fill="url(#paint8_footer)"/>
</g>
<path d="M1.40576 19.5313L8.35075 26.3749C8.62356 26.6438 8.98422 26.7805 9.34488 26.7805C9.70554 26.7805 10.0616 26.6438 10.339 26.3749L30.203 6.80087L28.2194 4.84619L9.3495 23.4407L3.39401 17.5721L1.41038 19.5268L1.40576 19.5313Z" fill="url(#paint9_footer)"/>
<path d="M10.3341 10.733L6.02002 14.9841L10.3433 10.7239H10.3387L10.3341 10.733Z" fill="url(#paint10_footer)"/>
<path d="M0.411521 16.597C0.147962 16.8567 0 17.2075 0 17.5766C0 17.9457 0.147962 18.2965 0.411521 18.5562L8.35064 26.3795C8.62345 26.6483 8.98411 26.785 9.34477 26.785C9.70543 26.785 10.0615 26.6483 10.3389 26.3795L11.333 25.3999L15.3927 29.4003C18.8837 32.8404 24.3768 33.1456 28.2192 30.307L17.2839 19.5313L19.2675 17.5766L31.2664 29.4003C31.5299 29.66 31.6779 30.0109 31.6779 30.3799C31.6779 30.749 31.5299 31.0998 31.2664 31.3596C28.8019 33.7835 25.5698 35.0001 22.3377 35.0001C19.1057 35.0001 15.869 33.7881 13.4091 31.3596L0.42077 18.5608C0.157212 18.3011 0.00924964 17.9502 0.00924964 17.5812C0.00924964 17.2121 0.157212 16.8613 0.42077 16.6015L0.411521 16.597Z" fill="url(#paint11_footer)"/>
<path d="M8.35055 26.3751L10.6255 28.6168L13.3998 31.3506C15.8597 33.7746 19.0963 34.9865 22.3284 34.9865C24.7883 34.9865 27.2528 34.2849 29.3751 32.877C29.6618 32.6901 29.9392 32.4851 30.2074 32.2755C30.5681 31.993 30.9195 31.6832 31.257 31.3506C31.5206 31.0909 31.6685 30.74 31.6685 30.371C31.6685 30.0019 31.5206 29.6511 31.257 29.3914L20.5436 18.8343L19.2582 17.5676L18.3195 18.4926L17.2745 19.5223L18.56 20.789L28.2099 30.2981C27.9279 30.5077 27.6412 30.6945 27.3406 30.8676C23.5722 33.0729 18.6155 32.5762 15.3788 29.3868L12.6045 26.653L11.3191 25.3863L10.3296 26.3659C10.0568 26.6348 9.69609 26.7715 9.33543 26.7715C8.97477 26.7715 8.61874 26.6348 8.34131 26.3659L8.35055 26.3751Z" fill="url(#paint12_footer)"/>
<path d="M17.2793 19.5314L18.5647 20.7981L28.2147 30.3072L30.2122 32.2755C30.5728 31.993 30.9242 31.6832 31.2618 31.3506C31.5253 31.0909 31.6733 30.74 31.6733 30.371C31.6733 30.0019 31.5253 29.6511 31.2618 29.3914L20.5483 18.8343L19.2629 17.5676L18.3243 18.4926L17.2793 19.5223V19.5314Z" fill="url(#paint13_footer)"/>
<path d="M0 17.5765C0 17.9456 0.147962 18.2965 0.411521 18.5562L1.40565 19.5358L15.3881 5.75738C17.2423 3.93029 19.7114 2.92333 22.3331 2.92333C24.4832 2.92333 26.5269 3.59767 28.2146 4.85067L30.1982 6.80535L31.2617 5.75738C31.5253 5.49767 31.6732 5.14683 31.6732 4.77777C31.6732 4.4087 31.5253 4.05787 31.2617 3.79816C28.8758 1.44708 25.7039 0.153076 22.3331 0.153076C18.9623 0.153076 15.7904 1.44708 13.4045 3.79816L0.416149 16.5969C0.152591 16.8566 0.00462835 17.2075 0.00462835 17.5765H0Z" fill="url(#paint14_footer)"/>
<g opacity="0.61">
<path d="M18.3238 18.5016L17.2788 19.5313L18.5642 20.798L20.5479 18.8433L19.2624 17.5767L18.3238 18.5016Z" fill="url(#paint15_footer)"/>
<path d="M8.35032 26.3749L10.6253 28.6166L12.6089 26.6619L11.3235 25.3953L10.334 26.3749C10.0611 26.6437 9.70048 26.7804 9.33982 26.7804C8.97917 26.7804 8.62313 26.6437 8.3457 26.3749H8.35032Z" fill="url(#paint16_footer)"/>
<path d="M27.345 30.8767L29.3748 32.8769C29.6615 32.6901 29.9389 32.4851 30.2071 32.2755L28.2096 30.3071C27.9276 30.5167 27.6409 30.7035 27.3403 30.8767H27.345Z" fill="url(#paint17_footer)"/>
</g>
<path d="M97.5902 11.8101C97.5902 14.1939 97.1131 16.2607 96.1587 18.0103C95.2043 19.7381 93.795 21.0722 91.9307 22.0126C90.0885 22.9312 87.858 23.3905 85.2391 23.3905H78.1479V0.262446H85.2391C89.1897 0.262446 92.2303 1.29036 94.361 3.34618C96.5138 5.38014 97.5902 8.20143 97.5902 11.8101ZM85.0726 21.3237C88.3796 21.3237 90.8986 20.4926 92.6298 18.8305C94.361 17.1465 95.2265 14.8063 95.2265 11.8101C95.2265 8.8138 94.361 6.4846 92.6298 4.82244C90.8986 3.13841 88.3796 2.2964 85.0726 2.2964H80.5117V21.3237H85.0726Z" fill="white"/>
<path d="M105.211 2.13237V10.8587H114.366V12.663H105.211V21.4877H115.365V23.3905H102.847V0.262446H115.365V2.13237H105.211Z" fill="white"/>
<path d="M121.226 0.262446L128.783 20.7004L136.407 0.262446H138.97L130.248 23.3905H127.352L118.663 0.262446H121.226Z" fill="white"/>
<path d="M153.561 0.0328072C156.38 0.0328072 158.71 0.710792 160.552 2.06676C162.395 3.40086 163.693 5.24892 164.448 7.61093H161.984C161.363 5.94877 160.33 4.62561 158.888 3.64143C157.445 2.65726 155.659 2.16518 153.528 2.16518C151.908 2.16518 150.432 2.55885 149.1 3.34618C147.791 4.13352 146.759 5.25985 146.004 6.72517C145.249 8.19049 144.872 9.89639 144.872 11.8429C144.872 13.7893 145.249 15.4952 146.004 16.9606C146.759 18.404 147.791 19.5194 149.1 20.3067C150.432 21.0941 151.908 21.4877 153.528 21.4877C155.659 21.4877 157.445 20.9957 158.888 20.0115C160.33 19.0273 161.363 17.7042 161.984 16.042H164.448C163.693 18.404 162.395 20.263 160.552 21.619C158.71 22.9531 156.38 23.6201 153.561 23.6201C151.408 23.6201 149.489 23.1171 147.802 22.1111C146.115 21.105 144.806 19.7162 143.873 17.9447C142.941 16.1513 142.475 14.1174 142.475 11.8429C142.475 9.54646 142.941 7.50157 143.873 5.7082C144.806 3.91482 146.115 2.52604 147.802 1.54187C149.489 0.535828 151.408 0.0328072 153.561 0.0328072Z" fill="white"/>
<path d="M180.349 0C182.524 0 184.477 0.503021 186.209 1.50906C187.94 2.51511 189.294 3.91482 190.27 5.7082C191.269 7.50157 191.768 9.53553 191.768 11.8101C191.768 14.0846 191.269 16.1295 190.27 17.9447C189.294 19.7381 187.94 21.1378 186.209 22.1439C184.477 23.1499 182.524 23.6529 180.349 23.6529C178.174 23.6529 176.221 23.1499 174.49 22.1439C172.759 21.1378 171.394 19.7381 170.395 17.9447C169.418 16.1295 168.93 14.0846 168.93 11.8101C168.93 9.53553 169.418 7.50157 170.395 5.7082C171.394 3.91482 172.759 2.51511 174.49 1.50906C176.221 0.503021 178.174 0 180.349 0ZM180.349 2.13237C178.64 2.13237 177.098 2.52604 175.722 3.31338C174.368 4.10072 173.291 5.22704 172.492 6.69237C171.716 8.15769 171.327 9.86359 171.327 11.8101C171.327 13.7565 171.716 15.4624 172.492 16.9277C173.291 18.3931 174.368 19.5194 175.722 20.3067C177.098 21.0941 178.64 21.4877 180.349 21.4877C182.058 21.4877 183.59 21.0941 184.943 20.3067C186.32 19.5194 187.396 18.3931 188.173 16.9277C188.972 15.4624 189.371 13.7565 189.371 11.8101C189.371 9.86359 188.972 8.15769 188.173 6.69237C187.396 5.22704 186.32 4.10072 184.943 3.31338C183.59 2.52604 182.058 2.13237 180.349 2.13237Z" fill="white"/>
<path d="M209.613 23.3905L203.188 13.7456H199.393V23.3905H197.029V0.262446H204.22C206.861 0.262446 208.825 0.87482 210.112 2.09957C211.422 3.32431 212.077 4.97553 212.077 7.05323C212.077 8.97783 211.522 10.5088 210.412 11.646C209.325 12.7833 207.738 13.4613 205.651 13.68L212.276 23.3905H209.613ZM199.393 12.0069H204.053C207.826 12.0069 209.713 10.3994 209.713 7.18445C209.713 3.90388 207.826 2.26359 204.053 2.26359H199.393V12.0069Z" fill="white"/>
<path d="M219.345 13.7456V23.3905H216.982V0.262446H224.006C226.647 0.262446 228.612 0.863884 229.899 2.06676C231.208 3.26964 231.863 4.92086 231.863 7.02042C231.863 9.16373 231.186 10.8259 229.832 12.0069C228.501 13.166 226.559 13.7456 224.006 13.7456H219.345ZM223.806 11.7773C225.826 11.7773 227.28 11.3726 228.168 10.5634C229.055 9.73236 229.499 8.55136 229.499 7.02042C229.499 5.44575 229.055 4.25381 228.168 3.4446C227.28 2.61352 225.826 2.19798 223.806 2.19798H219.345V11.7773H223.806Z" fill="white"/>
<path d="M80.1633 30.2396C80.72 30.2396 81.1797 30.3756 81.5422 30.6478C81.9047 30.9157 82.155 31.2836 82.2931 31.7514H81.6716C81.5551 31.4537 81.3674 31.2177 81.1084 31.0433C80.8495 30.8647 80.5323 30.7754 80.1569 30.7754C79.8591 30.7754 79.5915 30.8477 79.3542 30.9923C79.1211 31.1326 78.9356 31.3367 78.7975 31.6046C78.6637 31.8683 78.5968 32.1787 78.5968 32.536C78.5968 32.8889 78.6637 33.1972 78.7975 33.4609C78.9356 33.7246 79.1211 33.9287 79.3542 34.0733C79.5915 34.2136 79.8591 34.2838 80.1569 34.2838C80.5323 34.2838 80.8495 34.1966 81.1084 34.0222C81.3674 33.8436 81.5551 33.6055 81.6716 33.3078H82.2931C82.155 33.7756 81.9047 34.1456 81.5422 34.4177C81.1797 34.6857 80.72 34.8196 80.1633 34.8196C79.7361 34.8196 79.3585 34.7239 79.0305 34.5326C78.7025 34.3369 78.4457 34.0669 78.2602 33.7224C78.0789 33.3737 77.9883 32.9782 77.9883 32.536C77.9883 32.0894 78.0789 31.6918 78.2602 31.3431C78.4457 30.9944 78.7025 30.7244 79.0305 30.533C79.3585 30.3374 79.7361 30.2396 80.1633 30.2396Z" fill="white"/>
<path d="M85.0617 30.2842V32.9825C85.0617 33.4248 85.161 33.7522 85.3595 33.9648C85.558 34.1732 85.832 34.2774 86.1816 34.2774C86.5268 34.2774 86.7966 34.1711 86.9908 33.9585C87.185 33.7458 87.2821 33.4205 87.2821 32.9825V30.2842H87.8711V32.9825C87.8711 33.5949 87.7158 34.0563 87.4051 34.3667C87.0986 34.6729 86.6865 34.826 86.1686 34.826C85.6551 34.826 85.243 34.6729 84.9322 34.3667C84.6258 34.0563 84.4726 33.5949 84.4726 32.9825V30.2842H85.0617Z" fill="white"/>
<path d="M93.096 33.614C93.096 33.8266 93.0442 34.0244 92.9406 34.2072C92.8371 34.3901 92.6795 34.5389 92.4681 34.6538C92.2566 34.7686 91.9955 34.826 91.6848 34.826C91.3827 34.826 91.113 34.7728 90.8756 34.6665C90.6426 34.5559 90.4549 34.4071 90.3125 34.22C90.1744 34.0286 90.0945 33.8117 90.0729 33.5693H90.7009C90.7138 33.6969 90.757 33.8224 90.8303 33.9457C90.908 34.0648 91.0159 34.1647 91.154 34.2455C91.2964 34.3221 91.4669 34.3603 91.6654 34.3603C91.9243 34.3603 92.1228 34.2923 92.2609 34.1562C92.399 34.0201 92.4681 33.8458 92.4681 33.6331C92.4681 33.4503 92.4185 33.3014 92.3192 33.1866C92.2243 33.0718 92.1056 32.9825 91.9632 32.9187C91.8207 32.8507 91.6265 32.7784 91.3806 32.7018C91.0914 32.6083 90.8584 32.5211 90.6814 32.4403C90.5088 32.3552 90.3599 32.2298 90.2348 32.0639C90.1139 31.8981 90.0535 31.6791 90.0535 31.4069C90.0535 31.173 90.1096 30.9668 90.2218 30.7881C90.3383 30.6095 90.5023 30.4713 90.7138 30.3735C90.9296 30.2757 91.182 30.2268 91.4712 30.2268C91.92 30.2268 92.276 30.3352 92.5393 30.5521C92.8025 30.7648 92.9557 31.0369 92.9989 31.3686H92.3645C92.33 31.19 92.2372 31.0327 92.0862 30.8966C91.9351 30.7605 91.7301 30.6925 91.4712 30.6925C91.2338 30.6925 91.0439 30.7541 90.9015 30.8775C90.7591 30.9965 90.6879 31.1666 90.6879 31.3878C90.6879 31.5621 90.7332 31.7046 90.8239 31.8151C90.9188 31.9215 91.0353 32.0065 91.1734 32.0703C91.3115 32.1298 91.5014 32.1979 91.7431 32.2744C92.0365 32.368 92.2717 32.4573 92.4487 32.5423C92.6299 32.6274 92.7831 32.7571 92.9083 32.9315C93.0334 33.1016 93.096 33.3291 93.096 33.614Z" fill="white"/>
<path d="M98.1087 30.2842V30.7563H96.8205V34.7813H96.2314V30.7563H94.9432V30.2842H98.1087Z" fill="white"/>
<path d="M102.209 30.2268C102.632 30.2268 103.012 30.3246 103.349 30.5202C103.69 30.7159 103.957 30.9901 104.151 31.3431C104.346 31.6918 104.443 32.0873 104.443 32.5296C104.443 32.9719 104.346 33.3695 104.151 33.7224C103.957 34.0712 103.69 34.3433 103.349 34.5389C103.012 34.7346 102.632 34.8324 102.209 34.8324C101.786 34.8324 101.402 34.7346 101.057 34.5389C100.716 34.3433 100.449 34.0712 100.254 33.7224C100.06 33.3695 99.9631 32.9719 99.9631 32.5296C99.9631 32.0873 100.06 31.6918 100.254 31.3431C100.449 30.9901 100.716 30.7159 101.057 30.5202C101.402 30.3246 101.786 30.2268 102.209 30.2268ZM102.209 30.769C101.894 30.769 101.612 30.8413 101.361 30.9859C101.115 31.1262 100.921 31.3304 100.779 31.5983C100.641 31.8619 100.572 32.1724 100.572 32.5296C100.572 32.8826 100.641 33.193 100.779 33.4609C100.921 33.7288 101.115 33.9351 101.361 34.0797C101.612 34.22 101.894 34.2902 102.209 34.2902C102.52 34.2902 102.798 34.2179 103.044 34.0733C103.295 33.9287 103.489 33.7246 103.627 33.4609C103.769 33.193 103.841 32.8826 103.841 32.5296C103.841 32.1724 103.769 31.8619 103.627 31.5983C103.489 31.3304 103.295 31.1262 103.044 30.9859C102.798 30.8413 102.52 30.769 102.209 30.769Z" fill="white"/>
<path d="M111.233 30.3608V34.7813H110.644V31.2538L109.214 34.7813H108.689L107.252 31.2666V34.7813H106.663V30.3608H107.369L108.961 34.0733L110.528 30.3608H111.233Z" fill="white"/>
<path d="M122.236 30.2842L121.077 34.7813H120.358L119.303 31.1071L118.248 34.7813H117.53L116.364 30.2842H117.018L117.892 34.1052L118.973 30.2842H119.627L120.708 34.0924L121.588 30.2842H122.236Z" fill="white"/>
<path d="M126.441 30.2268C126.864 30.2268 127.244 30.3246 127.58 30.5202C127.921 30.7159 128.189 30.9901 128.383 31.3431C128.577 31.6918 128.674 32.0873 128.674 32.5296C128.674 32.9719 128.577 33.3695 128.383 33.7224C128.189 34.0712 127.921 34.3433 127.58 34.5389C127.244 34.7346 126.864 34.8324 126.441 34.8324C126.018 34.8324 125.634 34.7346 125.289 34.5389C124.948 34.3433 124.68 34.0712 124.486 33.7224C124.292 33.3695 124.195 32.9719 124.195 32.5296C124.195 32.0873 124.292 31.6918 124.486 31.3431C124.68 30.9901 124.948 30.7159 125.289 30.5202C125.634 30.3246 126.018 30.2268 126.441 30.2268ZM126.441 30.769C126.126 30.769 125.843 30.8413 125.593 30.9859C125.347 31.1262 125.153 31.3304 125.01 31.5983C124.872 31.8619 124.803 32.1724 124.803 32.5296C124.803 32.8826 124.872 33.193 125.01 33.4609C125.153 33.7288 125.347 33.9351 125.593 34.0797C125.843 34.22 126.126 34.2902 126.441 34.2902C126.752 34.2902 127.03 34.2179 127.276 34.0733C127.526 33.9287 127.721 33.7246 127.859 33.4609C128.001 33.193 128.072 32.8826 128.072 32.5296C128.072 32.1724 128.001 31.8619 127.859 31.5983C127.721 31.3304 127.526 31.1262 127.276 30.9859C127.03 30.8413 126.752 30.769 126.441 30.769Z" fill="white"/>
<path d="M133.316 34.7813L132.125 32.9442H131.484V34.7813H130.895V30.2842H132.397C132.914 30.2842 133.303 30.4075 133.562 30.6542C133.821 30.8966 133.95 31.2198 133.95 31.6238C133.95 31.9895 133.847 32.2851 133.639 32.5104C133.432 32.7316 133.132 32.8698 132.74 32.9251L133.983 34.7813H133.316ZM131.484 32.5232H132.345C133.014 32.5232 133.348 32.234 133.348 31.6557C133.348 31.0773 133.014 30.7881 132.345 30.7881H131.484V32.5232Z" fill="white"/>
<path d="M136.682 32.9697V34.7813H136.093V30.2842H137.543C138.065 30.2842 138.456 30.4054 138.715 30.6478C138.974 30.886 139.103 31.2134 139.103 31.6302C139.103 32.0512 138.969 32.3807 138.702 32.6189C138.434 32.8528 138.048 32.9697 137.543 32.9697H136.682ZM137.491 32.4849C137.849 32.4849 138.106 32.4105 138.261 32.2617C138.421 32.1128 138.501 31.9023 138.501 31.6302C138.501 31.3495 138.421 31.1369 138.261 30.9923C138.106 30.8434 137.849 30.769 137.491 30.769H136.682V32.4849H137.491Z" fill="white"/>
<path d="M145.06 32.5296C145.06 32.9846 144.968 33.3822 144.782 33.7224C144.596 34.0584 144.322 34.3199 143.96 34.507C143.602 34.6899 143.17 34.7813 142.665 34.7813H141.215V30.2842H142.665C143.17 30.2842 143.602 30.3756 143.96 30.5585C144.322 30.7371 144.596 30.9965 144.782 31.3367C144.968 31.6727 145.06 32.0703 145.06 32.5296ZM142.62 34.2583C143.215 34.2583 143.671 34.1073 143.986 33.8054C144.301 33.5034 144.458 33.0782 144.458 32.5296C144.458 31.981 144.301 31.5557 143.986 31.2538C143.675 30.9476 143.22 30.7945 142.62 30.7945H141.804V34.2583H142.62Z" fill="white"/>
<path d="M147.868 32.9697V34.7813H147.279V30.2842H148.729C149.252 30.2842 149.642 30.4054 149.901 30.6478C150.16 30.886 150.29 31.2134 150.29 31.6302C150.29 32.0512 150.156 32.3807 149.888 32.6189C149.621 32.8528 149.234 32.9697 148.729 32.9697H147.868ZM148.678 32.4849C149.036 32.4849 149.293 32.4105 149.448 32.2617C149.608 32.1128 149.688 31.9023 149.688 31.6302C149.688 31.3495 149.608 31.1369 149.448 30.9923C149.293 30.8434 149.036 30.769 148.678 30.769H147.868V32.4849H148.678Z" fill="white"/>
<path d="M154.823 34.7813L153.632 32.9442H152.991V34.7813H152.402V30.2842H153.904C154.421 30.2842 154.81 30.4075 155.069 30.6542C155.328 30.8966 155.457 31.2198 155.457 31.6238C155.457 31.9895 155.354 32.2851 155.146 32.5104C154.939 32.7316 154.639 32.8698 154.247 32.9251L155.49 34.7813H154.823ZM152.991 32.5232H153.852C154.521 32.5232 154.855 32.234 154.855 31.6557C154.855 31.0773 154.521 30.7881 153.852 30.7881H152.991V32.5232Z" fill="white"/>
<path d="M158.189 30.7563V32.2936H159.924V32.7401H158.189V34.3093H160.118V34.7813H157.6V30.2842H160.118V30.7563H158.189Z" fill="white"/>
<path d="M165.186 33.614C165.186 33.8266 165.134 34.0244 165.03 34.2072C164.927 34.3901 164.769 34.5389 164.558 34.6538C164.346 34.7686 164.085 34.826 163.775 34.826C163.472 34.826 163.203 34.7728 162.965 34.6665C162.732 34.5559 162.545 34.4071 162.402 34.22C162.264 34.0286 162.184 33.8117 162.163 33.5693H162.791C162.804 33.6969 162.847 33.8224 162.92 33.9457C162.998 34.0648 163.106 34.1647 163.244 34.2455C163.386 34.3221 163.557 34.3603 163.755 34.3603C164.014 34.3603 164.213 34.2923 164.351 34.1562C164.489 34.0201 164.558 33.8458 164.558 33.6331C164.558 33.4503 164.508 33.3014 164.409 33.1866C164.314 33.0718 164.195 32.9825 164.053 32.9187C163.911 32.8507 163.716 32.7784 163.47 32.7018C163.181 32.6083 162.948 32.5211 162.771 32.4403C162.599 32.3552 162.45 32.2298 162.325 32.0639C162.204 31.8981 162.143 31.6791 162.143 31.4069C162.143 31.173 162.199 30.9668 162.312 30.7881C162.428 30.6095 162.592 30.4713 162.804 30.3735C163.019 30.2757 163.272 30.2268 163.561 30.2268C164.01 30.2268 164.366 30.3352 164.629 30.5521C164.892 30.7648 165.046 31.0369 165.089 31.3686H164.454C164.42 31.19 164.327 31.0327 164.176 30.8966C164.025 30.7605 163.82 30.6925 163.561 30.6925C163.324 30.6925 163.134 30.7541 162.991 30.8775C162.849 30.9965 162.778 31.1666 162.778 31.3878C162.778 31.5621 162.823 31.7046 162.914 31.8151C163.009 31.9215 163.125 32.0065 163.263 32.0703C163.401 32.1298 163.591 32.1979 163.833 32.2744C164.126 32.368 164.361 32.4573 164.538 32.5423C164.72 32.6274 164.873 32.7571 164.998 32.9315C165.123 33.1016 165.186 33.3291 165.186 33.614Z" fill="white"/>
<path d="M170.289 33.614C170.289 33.8266 170.237 34.0244 170.134 34.2072C170.03 34.3901 169.873 34.5389 169.661 34.6538C169.45 34.7686 169.189 34.826 168.878 34.826C168.576 34.826 168.306 34.7728 168.069 34.6665C167.836 34.5559 167.648 34.4071 167.506 34.22C167.367 34.0286 167.288 33.8117 167.266 33.5693H167.894C167.907 33.6969 167.95 33.8224 168.023 33.9457C168.101 34.0648 168.209 34.1647 168.347 34.2455C168.49 34.3221 168.66 34.3603 168.858 34.3603C169.117 34.3603 169.316 34.2923 169.454 34.1562C169.592 34.0201 169.661 33.8458 169.661 33.6331C169.661 33.4503 169.612 33.3014 169.512 33.1866C169.417 33.0718 169.299 32.9825 169.156 32.9187C169.014 32.8507 168.82 32.7784 168.574 32.7018C168.285 32.6083 168.051 32.5211 167.875 32.4403C167.702 32.3552 167.553 32.2298 167.428 32.0639C167.307 31.8981 167.247 31.6791 167.247 31.4069C167.247 31.173 167.303 30.9668 167.415 30.7881C167.531 30.6095 167.695 30.4713 167.907 30.3735C168.123 30.2757 168.375 30.2268 168.664 30.2268C169.113 30.2268 169.469 30.3352 169.732 30.5521C169.996 30.7648 170.149 31.0369 170.192 31.3686H169.558C169.523 31.19 169.43 31.0327 169.279 30.8966C169.128 30.7605 168.923 30.6925 168.664 30.6925C168.427 30.6925 168.237 30.7541 168.095 30.8775C167.952 30.9965 167.881 31.1666 167.881 31.3878C167.881 31.5621 167.926 31.7046 168.017 31.8151C168.112 31.9215 168.228 32.0065 168.367 32.0703C168.505 32.1298 168.695 32.1979 168.936 32.2744C169.23 32.368 169.465 32.4573 169.642 32.5423C169.823 32.6274 169.976 32.7571 170.101 32.9315C170.227 33.1016 170.289 33.3291 170.289 33.614Z" fill="white"/>
<path d="M179.374 32.5296C179.374 32.9846 179.281 33.3822 179.096 33.7224C178.91 34.0584 178.636 34.3199 178.274 34.507C177.915 34.6899 177.484 34.7813 176.979 34.7813H175.529V30.2842H176.979C177.484 30.2842 177.915 30.3756 178.274 30.5585C178.636 30.7371 178.91 30.9965 179.096 31.3367C179.281 31.6727 179.374 32.0703 179.374 32.5296ZM176.934 34.2583C177.529 34.2583 177.984 34.1073 178.299 33.8054C178.614 33.5034 178.772 33.0782 178.772 32.5296C178.772 31.981 178.614 31.5557 178.299 31.2538C177.989 30.9476 177.533 30.7945 176.934 30.7945H176.118V34.2583H176.934Z" fill="white"/>
<path d="M182.182 30.7563V32.2936H183.917V32.7401H182.182V34.3093H184.111V34.7813H181.593V30.2842H184.111V30.7563H182.182Z" fill="white"/>
<path d="M186.59 30.2842L187.981 34.1371L189.393 30.2842H190.033L188.357 34.7813H187.612L185.942 30.2842H186.59Z" fill="white"/>
<path d="M192.642 30.7563V32.2936H194.377V32.7401H192.642V34.3093H194.571V34.7813H192.053V30.2842H194.571V30.7563H192.642Z" fill="white"/>
<path d="M197.34 34.3284H198.959V34.7813H196.751V30.2842H197.34V34.3284Z" fill="white"/>
<path d="M203.073 30.2268C203.496 30.2268 203.876 30.3246 204.213 30.5202C204.553 30.7159 204.821 30.9901 205.015 31.3431C205.209 31.6918 205.307 32.0873 205.307 32.5296C205.307 32.9719 205.209 33.3695 205.015 33.7224C204.821 34.0712 204.553 34.3433 204.213 34.5389C203.876 34.7346 203.496 34.8324 203.073 34.8324C202.65 34.8324 202.266 34.7346 201.921 34.5389C201.58 34.3433 201.312 34.0712 201.118 33.7224C200.924 33.3695 200.827 32.9719 200.827 32.5296C200.827 32.0873 200.924 31.6918 201.118 31.3431C201.312 30.9901 201.58 30.7159 201.921 30.5202C202.266 30.3246 202.65 30.2268 203.073 30.2268ZM203.073 30.769C202.758 30.769 202.475 30.8413 202.225 30.9859C201.979 31.1262 201.785 31.3304 201.643 31.5983C201.504 31.8619 201.435 32.1724 201.435 32.5296C201.435 32.8826 201.504 33.193 201.643 33.4609C201.785 33.7288 201.979 33.9351 202.225 34.0797C202.475 34.22 202.758 34.2902 203.073 34.2902C203.384 34.2902 203.662 34.2179 203.908 34.0733C204.159 33.9287 204.353 33.7246 204.491 33.4609C204.633 33.193 204.704 32.8826 204.704 32.5296C204.704 32.1724 204.633 31.8619 204.491 31.5983C204.353 31.3304 204.159 31.1262 203.908 30.9859C203.662 30.8413 203.384 30.769 203.073 30.769Z" fill="white"/>
<path d="M208.116 32.9697V34.7813H207.527V30.2842H208.977C209.499 30.2842 209.89 30.4054 210.149 30.6478C210.408 30.886 210.537 31.2134 210.537 31.6302C210.537 32.0512 210.403 32.3807 210.136 32.6189C209.868 32.8528 209.482 32.9697 208.977 32.9697H208.116ZM208.925 32.4849C209.283 32.4849 209.54 32.4105 209.696 32.2617C209.855 32.1128 209.935 31.9023 209.935 31.6302C209.935 31.3495 209.855 31.1369 209.696 30.9923C209.54 30.8434 209.283 30.769 208.925 30.769H208.116V32.4849H208.925Z" fill="white"/>
<path d="M217.219 30.3608V34.7813H216.63V31.2538L215.2 34.7813H214.675L213.238 31.2666V34.7813H212.649V30.3608H213.355L214.947 34.0733L216.514 30.3608H217.219Z" fill="white"/>
<path d="M220.175 30.7563V32.2936H221.91V32.7401H220.175V34.3093H222.104V34.7813H219.586V30.2842H222.104V30.7563H220.175Z" fill="white"/>
<path d="M227.832 34.7813H227.243L224.874 31.2283V34.7813H224.285V30.2842H224.874L227.243 33.8436V30.2842H227.832V34.7813Z" fill="white"/>
<path d="M233 30.2842V30.7563H231.712V34.7813H231.123V30.7563H229.834V30.2842H233Z" fill="white"/>
<defs>
<linearGradient id="paint0_footer" x1="36.1724" y1="15.8132" x2="64.965" y2="15.8132" gradientUnits="userSpaceOnUse">
<stop stop-color="#1D7EFF"/>
<stop offset="1" stop-color="#0029A9"/>
</linearGradient>
<linearGradient id="paint1_footer" x1="56.0315" y1="12.8562" x2="60.3501" y2="12.8562" gradientUnits="userSpaceOnUse">
<stop stop-color="#1D7EFF"/>
<stop offset="1" stop-color="#0029A9"/>
</linearGradient>
<linearGradient id="paint2_footer" x1="34.697" y1="24.1833" x2="66.3702" y2="24.1833" gradientUnits="userSpaceOnUse">
<stop stop-color="#1D7EFF"/>
<stop offset="1" stop-color="#0029A9"/>
</linearGradient>
<linearGradient id="paint3_footer" x1="34.697" y1="26.2839" x2="58.0196" y2="26.2839" gradientUnits="userSpaceOnUse">
<stop stop-color="#1D7EFF"/>
<stop offset="1" stop-color="#0029A9"/>
</linearGradient>
<linearGradient id="paint4_footer" x1="34.6968" y1="24.9261" x2="49.0908" y2="24.9261" gradientUnits="userSpaceOnUse">
<stop stop-color="#1D7EFF"/>
<stop offset="1" stop-color="#0029A9"/>
</linearGradient>
<linearGradient id="paint5_footer" x1="55.4953" y1="6.28592" x2="45.7184" y2="16.2076" gradientUnits="userSpaceOnUse">
<stop stop-color="#1D7EFF"/>
<stop offset="1" stop-color="#0029A9"/>
</linearGradient>
<linearGradient id="paint6_footer" x1="48.1712" y1="18.4834" x2="47.0641" y2="19.6068" gradientUnits="userSpaceOnUse">
<stop stop-color="#00112D"/>
<stop offset="0.99" stop-color="#0029A9" stop-opacity="0"/>
</linearGradient>
<linearGradient id="paint7_footer" x1="56.1055" y1="26.3065" x2="55.0031" y2="27.4299" gradientUnits="userSpaceOnUse">
<stop stop-color="#00112D"/>
<stop offset="0.99" stop-color="#0029A9" stop-opacity="0"/>
</linearGradient>
<linearGradient id="paint8_footer" x1="37.1526" y1="31.1455" x2="38.0501" y2="32.0563" gradientUnits="userSpaceOnUse">
<stop stop-color="#00112D"/>
<stop offset="0.99" stop-color="#0029A9" stop-opacity="0"/>
</linearGradient>
<linearGradient id="paint9_footer" x1="30.1984" y1="-46.6861" x2="1.40576" y2="-46.6861" gradientUnits="userSpaceOnUse">
<stop stop-color="#1D7EFF"/>
<stop offset="1" stop-color="#0029A9"/>
</linearGradient>
<linearGradient id="paint10_footer" x1="10.3387" y1="12.8562" x2="6.02002" y2="12.8562" gradientUnits="userSpaceOnUse">
<stop stop-color="#1D7EFF"/>
<stop offset="1" stop-color="#0029A9"/>
</linearGradient>
<linearGradient id="paint11_footer" x1="31.6733" y1="24.1833" x2="0" y2="24.1833" gradientUnits="userSpaceOnUse">
<stop stop-color="#1D7EFF"/>
<stop offset="1" stop-color="#0029A9"/>
</linearGradient>
<linearGradient id="paint12_footer" x1="31.6732" y1="26.2839" x2="8.35056" y2="26.2839" gradientUnits="userSpaceOnUse">
<stop stop-color="#1D7EFF"/>
<stop offset="1" stop-color="#0029A9"/>
</linearGradient>
<linearGradient id="paint13_footer" x1="31.6733" y1="24.9261" x2="17.2793" y2="24.9261" gradientUnits="userSpaceOnUse">
<stop stop-color="#1D7EFF"/>
<stop offset="1" stop-color="#0029A9"/>
</linearGradient>
<linearGradient id="paint14_footer" x1="10.8753" y1="6.28592" x2="20.6521" y2="16.2076" gradientUnits="userSpaceOnUse">
<stop stop-color="#1D7EFF"/>
<stop offset="1" stop-color="#0029A9"/>
</linearGradient>
<linearGradient id="paint15_footer" x1="18.199" y1="18.4834" x2="19.306" y2="19.6068" gradientUnits="userSpaceOnUse">
<stop stop-color="#00112D"/>
<stop offset="0.99" stop-color="#0029A9" stop-opacity="0"/>
</linearGradient>
<linearGradient id="paint16_footer" x1="10.2646" y1="26.3065" x2="11.367" y2="27.4299" gradientUnits="userSpaceOnUse">
<stop stop-color="#00112D"/>
<stop offset="0.99" stop-color="#0029A9" stop-opacity="0"/>
</linearGradient>
<linearGradient id="paint17_footer" x1="29.2176" y1="31.1455" x2="28.3201" y2="32.0563" gradientUnits="userSpaceOnUse">
<stop stop-color="#00112D"/>
<stop offset="0.99" stop-color="#0029A9" stop-opacity="0"/>
</linearGradient>
</defs>
</svg>
